# xmcd
#
# Track frame offsets: 
#        150
#        19052
#        38960
#        74942
#        96879
#        116610
#        138525
#        160667
#        175730
#        203827
#
# Disc length: 2983 seconds
#
# Revision: 0
# Processed by: cddbd v1.5.2PL0 Copyright (c) Steve Scherf et al.
# Submitted via: ExactAudioCopy v1.0b3
#
DISCID=8d0ba50a
DTITLE=Various Artist - Me Hien Yeu Dau
DYEAR=1995
DGENRE=
TTITLE0=Le Huynh - Khoc Me
TTITLE1=Mai Huong - Ba Me Gio Linh
TTITLE2=Son Ca - Ba Me phu sa
TTITLE3=Anh Tan - Nho Me 1
TTITLE4=Luu Hong - Bong hong cai ao trang
TTITLE5=Son Ca - Thuong ve Me Hue
TTITLE6=Mai Ngoc Khanh - Long Me
TTITLE7=Anh Tan - Nho Me 2 (Ai tro ve xu Viet)
TTITLE8=Luu Hong - Loi Me ru con
TTITLE9=Hang Nga - Me hien yeu dau
EXTD=
EXTT0=
EXTT1=
EXTT2=
EXTT3=
EXTT4=
EXTT5=
EXTT6=
EXTT7=
EXTT8=
EXTT9=
PLAYORDER=
